<?xml version="1.0" ?><!DOCTYPE svg  PUBLIC '-//W3C//DTD SVG 1.1//EN'  'http://www.w3.org/Graphics/SVG/1.1/DTD/svg11.dtd'><svg enable-background="new 0 0 75 75" height="75px" id="Layer_1" version="1.1" viewBox="0 0 75 75" width="75px" xml:space="preserve" xmlns="http://www.w3.org/2000/svg" xmlns:xlink="http://www.w3.org/1999/xlink"><g><polygon fill="#EAB818" points="65.711,9.291 62.273,19.42 68.676,27.992 57.977,27.857 51.801,36.59 48.625,26.379 38.41,23.201    47.141,17.023 47.008,6.326 55.578,12.729  "/><polygon fill="#F26606" points="55.578,12.729 47.008,6.326 47.141,17.023 38.41,23.201 48.625,26.379 51.801,36.59 57.977,27.857     "/><polygon fill="#FF8F15" points="62.273,19.42 65.711,9.291 48.625,26.379 51.801,36.59 57.977,27.857 68.676,27.992  "/><polygon fill="#F96D06" points="62.273,19.42 47.141,17.023 38.41,23.201 48.625,26.379 51.801,36.59 57.977,27.857 68.676,27.992     "/><polygon fill="#FF8F15" points="47.141,17.023 38.41,23.201 48.625,26.379 51.801,36.59 57.977,27.857 56.494,18.504  "/><polygon fill="#EAB818" points="48.625,26.379 51.801,36.59 57.977,27.857 56.494,18.508  "/><g><polygon fill="#EAB818" points="15.332,68.674 14.613,60.391 6.324,59.662 31.342,43.662   "/><polygon fill="#FF8F15" points="14.613,60.391 15.332,68.674 31.342,43.662   "/><polygon fill="#FF8F15" points="27.125,46.357 28.283,46.719 28.645,47.877 31.342,43.662   "/></g><g><polygon fill="#EAB818" points="24.166,59.393 23.484,51.521 15.605,50.828 39.383,35.621   "/><polygon fill="#FF8F15" points="23.484,51.521 24.166,59.393 39.383,35.621   "/><polygon fill="#FF8F15" points="35.375,38.184 36.477,38.525 36.818,39.627 39.383,35.621   "/></g><g><polygon fill="#EAB818" points="32.379,50.111 31.779,43.225 24.887,42.617 45.689,29.312   "/><polygon fill="#FF8F15" points="31.779,43.225 32.379,50.111 45.689,29.312   "/><polygon fill="#FF8F15" points="42.184,31.557 43.146,31.855 43.447,32.818 45.689,29.312   "/></g></g></svg>